<?xml version="1.0" encoding="UTF-8" standalone="no"?>
<!-- Created with Inkscape (http://www.inkscape.org/) -->

<svg
   xmlns:dc="http://purl.org/dc/elements/1.1/"
   xmlns:cc="http://creativecommons.org/ns#"
   xmlns:rdf="http://www.w3.org/1999/02/22-rdf-syntax-ns#"
   xmlns:svg="http://www.w3.org/2000/svg"
   xmlns="http://www.w3.org/2000/svg"
   xmlns:sodipodi="http://sodipodi.sourceforge.net/DTD/sodipodi-0.dtd"
   xmlns:inkscape="http://www.inkscape.org/namespaces/inkscape"
   width="100"
   height="100"
   id="svg2"
   version="1.1"
   inkscape:version="0.48.4 r9939"
   sodipodi:docname="Nouveau document 1">
  <defs
     id="defs4" />
  <sodipodi:namedview
     id="base"
     pagecolor="#ffffff"
     bordercolor="#666666"
     borderopacity="1.0"
     inkscape:pageopacity="0.0"
     inkscape:pageshadow="2"
     inkscape:zoom="2.4632728"
     inkscape:cx="70.267729"
     inkscape:cy="38.262879"
     inkscape:document-units="px"
     inkscape:current-layer="layer1"
     showgrid="false"
     inkscape:window-width="1301"
     inkscape:window-height="744"
     inkscape:window-x="65"
     inkscape:window-y="24"
     inkscape:window-maximized="1" />
  <metadata
     id="metadata7">
    <rdf:RDF>
      <cc:Work
         rdf:about="">
        <dc:format>image/svg+xml</dc:format>
        <dc:type
           rdf:resource="http://purl.org/dc/dcmitype/StillImage" />
        <dc:title></dc:title>
      </cc:Work>
    </rdf:RDF>
  </metadata>
  <g
     inkscape:label="Calque 1"
     inkscape:groupmode="layer"
     id="layer1"
     transform="translate(0,-952.36218)">
    <g
       id="g3766"
       transform="matrix(0.87639076,0,0,0.87639076,-211.13541,637.59121)">
      <path
         transform="translate(-0.40959424,1.2861402)"
         d="m 353.65776,415.08926 c 0,30.43945 -24.93309,55.1155 -55.68962,55.1155 -30.75653,0 -55.68962,-24.67605 -55.68962,-55.1155 0,-30.43944 24.93309,-55.11549 55.68962,-55.11549 30.75653,0 55.68962,24.67605 55.68962,55.11549 z"
         sodipodi:ry="55.115498"
         sodipodi:rx="55.689617"
         sodipodi:cy="415.08926"
         sodipodi:cx="297.96814"
         id="path2985"
         style="fill:#6a6a6a;fill-opacity:1;fill-rule:nonzero;stroke:none"
         sodipodi:type="arc" />
      <g
         id="flowRoot2987"
         style="font-size:11px;font-style:normal;font-variant:normal;font-weight:bold;font-stretch:normal;line-height:125%;letter-spacing:0px;word-spacing:0px;fill:#ffffff;fill-opacity:1;stroke:none;font-family:Arial;-inkscape-font-specification:Arial Bold"
         transform="matrix(11.733719,0,0,6.0602345,-647.48985,-3098.558)">
        <path
           id="path2996"
           style="fill:#ffffff;fill-opacity:1;font-family:TeX Gyre Schola;-inkscape-font-specification:TeX Gyre Schola Bold"
           d="m 82.68075,583.97057 0,-0.594 -0.165,0 c -0.571999,0 -0.814,-0.044 -0.913,-0.165 -0.077,-0.088 -0.077,-0.121 -0.077,-0.825 l 0,-4.774 c 0,-0.704 0,-0.737 0.077,-0.825 0.099,-0.121 0.341001,-0.165 0.913,-0.165 l 0.165,0 0,-0.594 -4.279,0 0,0.594 0.165,0 c 0.571999,0 0.803,0.044 0.902,0.165 0.077,0.088 0.077,0.132 0.077,0.825 l 0,4.774 c 0,0.693 0,0.737 -0.077,0.825 -0.099,0.121 -0.330001,0.165 -0.902,0.165 l -0.165,0 0,0.594 4.279,0"
           inkscape:connector-curvature="0" />
      </g>
    </g>
  </g>
</svg>
