<?xml version="1.0" encoding="UTF-8" standalone="no"?>
<!-- Created with Inkscape (http://www.inkscape.org/) -->

<svg
   xmlns:dc="http://purl.org/dc/elements/1.1/"
   xmlns:cc="http://creativecommons.org/ns#"
   xmlns:rdf="http://www.w3.org/1999/02/22-rdf-syntax-ns#"
   xmlns:svg="http://www.w3.org/2000/svg"
   xmlns="http://www.w3.org/2000/svg"
   xmlns:sodipodi="http://sodipodi.sourceforge.net/DTD/sodipodi-0.dtd"
   xmlns:inkscape="http://www.inkscape.org/namespaces/inkscape"
   width="100"
   height="100"
   id="svg2"
   version="1.1"
   inkscape:version="0.48.4 r9939"
   sodipodi:docname="info.svg">
  <defs
     id="defs4" />
  <sodipodi:namedview
     id="base"
     pagecolor="#ffffff"
     bordercolor="#666666"
     borderopacity="1.0"
     inkscape:pageopacity="0.0"
     inkscape:pageshadow="2"
     inkscape:zoom="2.4632728"
     inkscape:cx="79.125112"
     inkscape:cy="19.06311"
     inkscape:document-units="px"
     inkscape:current-layer="layer1"
     showgrid="false"
     inkscape:window-width="1301"
     inkscape:window-height="744"
     inkscape:window-x="65"
     inkscape:window-y="24"
     inkscape:window-maximized="1" />
  <metadata
     id="metadata7">
    <rdf:RDF>
      <cc:Work
         rdf:about="">
        <dc:format>image/svg+xml</dc:format>
        <dc:type
           rdf:resource="http://purl.org/dc/dcmitype/StillImage" />
        <dc:title></dc:title>
      </cc:Work>
    </rdf:RDF>
  </metadata>
  <g
     inkscape:label="Calque 1"
     inkscape:groupmode="layer"
     id="layer1"
     transform="translate(0,-952.36218)">
    <path
       inkscape:connector-curvature="0"
       d="m 80.112842,959.34292 c -9.126677,0 -16.525306,7.3988 -16.525306,16.5254 0,0.38542 0.0311,0.76298 0.05826,1.14147 l -30.526986,14.32772 c -2.966489,-2.83464 -6.977346,-4.58483 -11.403809,-4.58483 -9.126676,2.8e-4 -16.5254951,7.39908 -16.5254951,16.52552 0,9.1267 7.3988191,16.5254 16.5253061,16.5254 2.879027,0 5.585561,-0.7397 7.942208,-2.0338 l 13.213465,11.1341 c -0.578605,1.6844 -0.906723,3.4831 -0.906723,5.3625 0,9.1265 7.398818,16.5252 16.52532,16.5252 9.126867,0 16.525306,-7.3989 16.525306,-16.5252 0,-9.1267 -7.398629,-16.5255 -16.525306,-16.5255 -2.879028,0 -5.585372,0.7398 -7.9424,2.0335 l -13.213274,-11.1339 c 0.578796,-1.6831 0.906723,-3.4829 0.906723,-5.3623 0,-0.3852 -0.0311,-0.7618 -0.05826,-1.1415 l 30.526782,-14.32768 c 2.966489,2.83449 6.977358,4.58468 11.403807,4.58468 9.126502,0 16.52532,-7.3988 16.52532,-16.52525 0,-9.12645 -7.398438,-16.52553 -16.524939,-16.52553 z"
       id="path4402" />
  </g>
</svg>
